PathFileType	4	(X/Y/Z)	 s01c0402.trc
DataRate	CameraRate	NumFrames	NumMarkers	Units	OrigDataRate	OrigDataStartFrame	OrigNumFrames
200	200	4	48	mm	200	751	2000
Frame#	Time	racr			lacr			c7			jug			rlel			rdr			llel			ldr			s2			lic			ric			lasi			rasi			rpsi			lpsi			rgt			lgt			rth1			rth2			rth3			rth4			rlfc			rsh1			rsh2			rsh3			rsh4			rlmal			rmmal			rcal			rtoe			rmt5			lth1			lth2			lth4			lth3			llfc			lsh1			lsh2			lsh3			lsh4			llmal			lmmal			lcal			ltoe			lmt5			SBIKE			LBIKE			RBIKE			
		X1	Y1	Z1	X2	Y2	Z2	X3	Y3	Z3	X4	Y4	Z4	X5	Y5	Z5	X6	Y6	Z6	X7	Y7	Z7	X8	Y8	Z8	X9	Y9	Z9	X10	Y10	Z10	X11	Y11	Z11	X12	Y12	Z12	X13	Y13	Z13	X14	Y14	Z14	X15	Y15	Z15	X16	Y16	Z16	X17	Y17	Z17	X18	Y18	Z18	X19	Y19	Z19	X20	Y20	Z20	X21	Y21	Z21	X22	Y22	Z22	X23	Y23	Z23	X24	Y24	Z24	X25	Y25	Z25	X26	Y26	Z26	X27	Y27	Z27	X28	Y28	Z28	X29	Y29	Z29	X30	Y30	Z30	X31	Y31	Z31	X32	Y32	Z32	X33	Y33	Z33	X34	Y34	Z34	X35	Y35	Z35	X36	Y36	Z36	X37	Y37	Z37	X38	Y38	Z38	X39	Y39	Z39	X40	Y40	Z40	X41	Y41	Z41	X42	Y42	Z42	X43	Y43	Z43	X44	Y44	Z44	X45	Y45	Z45	X46	Y46	Z46	X47	Y47	Z47	X48	Y48	Z48	
751	3.7550	703.277738	1272.111819	-23.373845	754.725813	1253.997509	-405.971682	728.382994	1378.914639	-212.488641	706.661414	1208.109435	-210.775663	525.250446	1037.704766	54.909646	692.621511	891.289887	-43.481987	564.481380	1067.465750	-542.720860	703.231189	891.593064	-457.655787	189.082418	1211.623290	-238.927680	359.479422	1207.188435	-412.553610	340.303853	1195.329132	-81.412171	353.301145	1150.920436	-388.448573	369.087366	1149.635581	-113.727994	222.895316	1245.479589	-189.215675	220.087756	1252.294532	-295.158622	289.535330	1084.030131	-58.424751	291.058404	1070.174571	-434.682727	363.504108	971.777891	-44.424563	415.525779	907.523613	-50.761783	467.320976	834.079304	-63.806177	460.940901	939.905181	-64.557925	507.948737	729.486124	-87.518751	447.533879	625.369089	-56.111476	413.629181	547.701177	-61.673117	369.846683	471.045803	-74.128763	455.346431	530.032772	-101.932591	298.580353	364.777530	-92.776607	342.873102	372.942514	-173.392245	246.731416	346.699763	-148.407933	503.327422	259.909481	-128.721163	393.402617	254.985930	-61.273162	343.251468	957.906700	-445.895067	404.911055	902.013429	-444.091219	443.047062	930.112916	-430.637156	456.286523	826.786994	-431.574045	486.061416	715.862296	-417.081966	378.723544	687.225230	-449.073053	305.118044	642.390876	-442.077857	229.434031	602.063530	-429.653501	334.881203	597.604650	-411.724307	121.972291	544.728583	-413.115775	144.235597	525.435765	-334.231614	69.282076	564.148421	-369.064650	189.917180	313.338757	-372.323109	120.382489	393.816059	-438.831560	-223.314217	893.542498	-250.078337	-12.440486	85.204792	-455.750988	-21.505699	80.872448	-55.626945	
752	3.7600	703.487003	1272.214712	-24.705332	753.635855	1255.931401	-407.662356	727.340639	1380.164430	-213.568171	706.697026	1209.391168	-212.282670	525.359383	1037.858411	54.346850	692.742664	891.244553	-43.358928	564.956185	1067.500403	-542.933606	703.368386	891.467902	-457.934617	188.426992	1209.082508	-237.701953	358.194342	1206.759193	-411.629085	340.588800	1193.600863	-80.156706	352.745853	1150.702335	-387.489478	369.239965	1147.680617	-112.728126	222.381476	1242.964273	-187.939587	219.036264	1250.320928	-293.619258	288.869355	1081.301587	-58.147214	291.972085	1070.038199	-434.580134	361.287589	967.485535	-44.559729	411.997153	902.171150	-50.808883	462.295590	827.973134	-64.002098	456.833805	933.336693	-63.053880	501.705924	722.421996	-87.913718	442.562193	617.463391	-56.292565	409.263255	539.560049	-61.888033	366.117225	462.549701	-74.228797	451.053053	522.228110	-102.083109	295.169107	355.961249	-93.202264	340.763843	364.487035	-173.044351	243.615533	338.758894	-148.609440	499.322468	249.015796	-129.036276	389.426312	245.614060	-61.443930	346.755181	959.536772	-446.561019	408.952966	905.105054	-445.357479	447.443146	934.799072	-431.430345	464.059700	831.991911	-433.311723	493.520105	721.039283	-419.250174	385.438130	693.486319	-450.529764	311.242436	649.741827	-443.168212	235.248983	610.310843	-430.318171	340.884802	604.261776	-413.157871	127.437737	553.887201	-413.301166	149.537954	534.468692	-334.738349	74.628211	573.895070	-369.254813	194.212363	322.378739	-372.169914	125.087650	403.110706	-438.770019	-223.324863	893.511656	-250.187744	-12.433034	85.171144	-455.756025	-21.510520	80.863895	-55.653778	
753	3.7650	703.660451	1272.513266	-26.154712	752.498212	1257.957715	-409.422127	726.281403	1381.461346	-214.803174	706.748367	1210.621779	-213.886181	525.644609	1038.262244	53.815486	692.780007	891.250483	-43.262310	565.287113	1067.377071	-543.339078	703.454744	891.377776	-458.281930	187.854855	1206.646871	-236.338359	356.794978	1206.431334	-410.795235	341.029080	1191.838105	-79.085806	352.152516	1150.544254	-386.658289	369.430970	1145.753231	-111.777604	222.019298	1240.576031	-186.582554	218.003701	1248.438092	-291.931533	288.246480	1078.560020	-57.949325	292.387684	1070.065152	-434.227022	358.909012	963.362088	-44.902846	408.370748	896.943906	-50.851656	457.064376	821.835039	-64.277500	454.391313	927.762775	-63.668872	495.276009	715.214178	-88.726369	437.046084	609.668234	-56.386028	404.385214	531.432706	-62.169267	362.117154	453.985276	-74.498656	446.158976	514.835534	-102.673218	291.248749	347.609474	-93.665485	338.173426	356.273309	-172.725651	240.079856	331.191890	-148.874603	494.808548	238.346067	-129.354860	384.712055	236.190357	-61.731897	350.165772	961.487288	-446.985764	412.889794	908.436316	-446.668077	451.692498	939.717323	-432.287488	471.158048	838.402218	-435.414703	500.897915	726.511544	-421.415652	392.474771	699.886367	-452.120637	317.834946	656.972620	-444.155218	241.566062	618.542569	-430.842883	347.148670	611.113068	-414.526470	133.314208	562.797089	-413.498893	155.593502	543.744433	-334.956948	80.506634	583.554047	-369.536879	199.166046	331.275708	-372.308085	130.291554	412.231392	-438.841216	-223.349948	893.476106	-250.338738	-12.428062	85.100825	-455.809878	-21.507820	80.839847	-55.677153	
754	3.7700	703.993509	1272.828904	-27.754309	751.322552	1259.941152	-411.343900	725.230902	1382.755782	-216.246234	706.856599	1212.129318	-215.742249	526.047186	1038.988004	53.323131	692.814258	891.300641	-43.132309	565.506662	1067.345083	-544.006011	703.499151	891.331509	-458.672998	187.367928	1204.474274	-234.865472	355.258490	1206.270903	-410.001751	341.624294	1190.030060	-77.988594	351.486062	1150.519246	-385.917148	369.758277	1143.800470	-110.826887	221.821535	1238.302809	-185.113362	217.095464	1246.640899	-290.095323	287.588317	1075.806342	-57.776088	292.899868	1070.344254	-434.075950	356.532936	959.275103	-44.803788	404.567696	891.824575	-50.874769	451.794127	815.570048	-64.711186	451.249742	921.726621	-63.644584	488.265716	708.207121	-88.861573	430.786641	602.006755	-56.377464	398.937229	523.446519	-62.395804	357.576119	445.473505	-74.731568	440.778361	507.408514	-103.122624	286.902818	339.614650	-94.253197	334.563767	348.143467	-172.634871	236.227432	324.089286	-149.146123	489.636238	227.800336	-129.755741	379.810012	227.410617	-61.973418	353.444748	963.626639	-446.929972	416.695224	911.995386	-448.011635	455.141592	944.759860	-433.666733	478.586391	843.754092	-436.806384	508.326039	732.285913	-423.806533	399.504702	706.494653	-453.504785	324.707816	664.529851	-445.199461	247.904517	626.763247	-430.952754	353.746790	617.992837	-415.870495	139.600323	571.427185	-413.711124	163.058039	552.749613	-334.088420	87.029959	592.037564	-369.211700	204.674103	339.793151	-372.277675	136.052508	420.999541	-438.801555	-223.383773	893.438293	-250.510241	-12.444871	85.055287	-455.833013	-21.519884	80.846977	-55.705856	
